<svg width="29" height="28" viewBox="0 0 29 28" fill="none" xmlns="http://www.w3.org/2000/svg">
<path d="M14.0658 6C10.7423 6 8.0376 8.71067 8.0376 12.0433C8.0376 16.7787 13.4991 21.668 13.7316 21.8733C13.8274 21.958 13.9466 22 14.0658 22C14.185 22 14.3042 21.958 14.4 21.874C14.6325 21.668 20.094 16.7787 20.094 12.0433C20.094 8.71067 17.3893 6 14.0658 6ZM14.0658 15.3333C12.2192 15.3333 10.7168 13.838 10.7168 12C10.7168 10.162 12.2192 8.66667 14.0658 8.66667C15.9124 8.66667 17.4148 10.162 17.4148 12C17.4148 13.838 15.9124 15.3333 14.0658 15.3333Z" fill="white"/>
<path d="M27.9316 14C27.9316 21.6206 21.7246 27.8 14.0658 27.8C6.40705 27.8 0.2 21.6206 0.2 14C0.2 6.37935 6.40705 0.2 14.0658 0.2C21.7246 0.2 27.9316 6.37935 27.9316 14Z" stroke="#8F8F8F" stroke-width="0.4"/>
</svg>
