<svg width="33" height="45" viewBox="0 0 33 45" fill="none" xmlns="http://www.w3.org/2000/svg">
<path d="M16.5 0C7.77615 0 0.679688 7.09646 0.679688 15.8203C0.679688 18.4841 1.35434 21.1195 2.66496 23.4936L15.3774 44.3718C15.6168 44.7618 16.0417 45 16.5 45C16.9583 45 17.3832 44.7618 17.6226 44.3718L30.3685 23.4396C31.6457 21.1195 32.3203 18.4841 32.3203 15.8203C32.3203 7.09646 25.2238 0 16.5 0V0Z" fill="url(#paint0_linear)"/>
<path d="M25.3329 16.2159L17.4228 8.30576C16.9218 7.77841 16.0781 7.77841 15.5771 8.30576L7.66699 16.2159C7.13965 16.7169 7.13965 17.5605 7.66699 18.0615C8.14143 18.589 9.03835 18.5889 9.51261 18.0615L9.9082 17.6925V22.4121C9.9082 23.1505 10.4882 23.7305 11.2266 23.7305H15.1816V19.7754C15.1816 19.037 15.7616 18.457 16.5 18.457C17.2384 18.457 17.8184 19.037 17.8184 19.7754V23.7305H21.7734C22.5118 23.7305 23.0918 23.1505 23.0918 22.4121V17.6925L23.4874 18.0615C23.9618 18.589 24.8587 18.5889 25.333 18.0615C25.8603 17.5605 25.8603 16.7169 25.3329 16.2159Z" fill="url(#paint1_linear)"/>
<defs>
<linearGradient id="paint0_linear" x1="16.5" y1="45" x2="16.5" y2="0" gradientUnits="userSpaceOnUse">
<stop stop-color="#4C8A2D"/>
<stop offset="1" stop-color="#7BE25D"/>
</linearGradient>
<linearGradient id="paint1_linear" x1="16.5" y1="23.7305" x2="16.5" y2="7.91025" gradientUnits="userSpaceOnUse">
<stop stop-color="#BBFEA7"/>
<stop offset="0.322917" stop-color="#D8FFCD"/>
<stop offset="1" stop-color="#F2FFEE"/>
</linearGradient>
</defs>
</svg>
