<svg width="29" height="28" viewBox="0 0 29 28" fill="none" xmlns="http://www.w3.org/2000/svg">
<g clip-path="url(#clip0)">
<path d="M22.7901 9.1788L17.9148 14L22.7901 18.8212C22.8782 18.6379 22.9317 18.4352 22.9317 18.2188V9.78127C22.9317 9.5648 22.8782 9.36215 22.7901 9.1788Z" fill="white"/>
<path d="M21.5191 8.375H8.26961C8.05212 8.375 7.84851 8.42822 7.66431 8.51594L13.8954 14.6867C14.4464 15.235 15.3423 15.235 15.8933 14.6867L22.1244 8.51594C21.9402 8.42822 21.7366 8.375 21.5191 8.375Z" fill="white"/>
<path d="M6.99805 9.1788C6.90991 9.36215 6.85645 9.5648 6.85645 9.78127V18.2188C6.85645 18.4352 6.90991 18.6379 6.99805 18.8212L11.8733 14L6.99805 9.1788Z" fill="white"/>
<path d="M17.2491 14.6629L16.5592 15.3496C15.6412 16.2633 14.1475 16.2633 13.2294 15.3496L12.5396 14.6629L7.66431 19.4842C7.84851 19.5719 8.05212 19.6251 8.26961 19.6251H21.5191C21.7366 19.6251 21.9402 19.5719 22.1244 19.4842L17.2491 14.6629Z" fill="white"/>
</g>
<path d="M28.76 14C28.76 21.6206 22.5529 27.8 14.8942 27.8C7.23542 27.8 1.02837 21.6206 1.02837 14C1.02837 6.37935 7.23542 0.2 14.8942 0.2C22.5529 0.2 28.76 6.37935 28.76 14Z" stroke="#8F8F8F" stroke-width="0.4"/>
<defs>
<clipPath id="clip0">
<rect width="16.0752" height="16" fill="white" transform="translate(6.85645 6)"/>
</clipPath>
</defs>
</svg>
