<svg width="45" height="45" viewBox="0 0 45 45" fill="none" xmlns="http://www.w3.org/2000/svg">
<g clip-path="url(#clip0)">
<path d="M38.3189 0H27.7709C24.1358 0 21.1784 2.9574 21.1784 6.5925V11.9544C21.1784 15.1381 23.447 17.8019 26.4524 18.4144V21.1839C26.4524 21.6834 26.7345 22.1398 27.1812 22.3633C27.6273 22.5863 28.1619 22.5388 28.562 22.2387L33.4844 18.5469H38.3189C41.9638 18.5469 44.9993 15.5986 44.9993 11.9544V6.5925C44.9993 2.94764 41.9631 0 38.3189 0ZM41.013 35.4076L31.6898 28.7213C31.2555 28.4098 30.676 28.3914 30.2228 28.6747L24.9699 31.957C24.6874 32.0112 23.4594 31.7813 21.0849 30.0624C19.0886 28.6174 16.9492 26.594 15.3621 24.6501C13.0105 21.7697 12.8353 20.3174 12.9643 19.9918L16.2623 14.7141C16.5456 14.2608 16.5271 13.6814 16.2156 13.247L9.52925 3.92386C9.30361 3.60926 8.95113 3.40973 8.56533 3.37818C8.17989 3.34662 7.79928 3.4862 7.52548 3.75993L2.71479 8.57026C-0.010284 11.2952 -0.768861 15.4444 0.82714 18.8953C2.96127 23.5094 5.73187 27.7732 9.06206 31.5682C13.8226 36.9932 19.5771 41.2536 26.1658 44.2311C29.5391 45.7557 33.6203 44.9681 36.32 42.2683L41.177 37.4114C41.4507 37.1376 41.5904 36.7574 41.5588 36.3716C41.5271 35.9857 41.3276 35.6332 41.013 35.4076Z" fill="url(#paint0_linear)"/>
<path d="M27.7716 7.9989C27.0435 7.9989 26.4531 8.58924 26.4531 9.3174C26.4531 10.0456 27.0435 10.6359 27.7716 10.6359C28.4998 10.6359 29.0901 10.0456 29.0901 9.3174C29.0901 8.58924 28.4999 7.9989 27.7716 7.9989ZM33.0456 7.9989C32.3175 7.9989 31.7271 8.58924 31.7271 9.3174C31.7271 10.0456 32.3175 10.6359 33.0456 10.6359C33.7738 10.6359 34.3641 10.0456 34.3641 9.3174C34.3641 8.58924 33.7739 7.9989 33.0456 7.9989ZM38.3196 7.9989C37.5915 7.9989 37.0011 8.58924 37.0011 9.3174C37.0011 10.0456 37.5915 10.6359 38.3196 10.6359C39.0478 10.6359 39.6381 10.0456 39.6381 9.3174C39.6381 8.58924 39.0479 7.9989 38.3196 7.9989Z" fill="url(#paint1_linear)"/>
</g>
<defs>
<linearGradient id="paint0_linear" x1="22.4996" y1="45" x2="22.4996" y2="0" gradientUnits="userSpaceOnUse">
<stop stop-color="#4C8A2D"/>
<stop offset="1" stop-color="#7BE25D"/>
</linearGradient>
<linearGradient id="paint1_linear" x1="33.0456" y1="10.6359" x2="33.0456" y2="7.9989" gradientUnits="userSpaceOnUse">
<stop stop-color="#BBFEA7"/>
<stop offset="0.322917" stop-color="#D8FFCD"/>
<stop offset="1" stop-color="#F2FFEE"/>
</linearGradient>
<clipPath id="clip0">
<rect width="45" height="45" fill="white"/>
</clipPath>
</defs>
</svg>
