<svg width="29" height="28" viewBox="0 0 29 28" fill="none" xmlns="http://www.w3.org/2000/svg">
<g clip-path="url(#clip0)">
<path d="M21.558 17.2746L19.591 15.3208C18.8885 14.6231 17.6942 14.9022 17.4132 15.8093C17.2024 16.4373 16.4999 16.7862 15.8676 16.6466C14.4626 16.2977 12.5658 14.4835 12.2145 13.0182C12.0038 12.3902 12.4253 11.6924 13.0576 11.4831C13.9708 11.204 14.2518 10.0178 13.5493 9.32007L11.5823 7.36633C11.0202 6.87789 10.1772 6.87789 9.68546 7.36633L8.35067 8.69208C7.01589 10.0876 8.49118 13.7858 11.793 17.0652C15.0949 20.3447 18.8182 21.8798 20.2233 20.4843L21.558 19.1585C22.0498 18.6003 22.0498 17.763 21.558 17.2746Z" fill="white"/>
</g>
<path d="M28.76 14C28.76 21.6206 22.5529 27.8 14.8942 27.8C7.23542 27.8 1.02837 21.6206 1.02837 14C1.02837 6.37935 7.23542 0.2 14.8942 0.2C22.5529 0.2 28.76 6.37935 28.76 14Z" stroke="#8F8F8F" stroke-width="0.4"/>
<defs>
<clipPath id="clip0">
<rect width="14.0658" height="14" fill="white" transform="translate(7.86108 7)"/>
</clipPath>
</defs>
</svg>
