<svg width="45" height="45" viewBox="0 0 45 45" fill="none" xmlns="http://www.w3.org/2000/svg">
<g clip-path="url(#clip0)">
<path d="M22.4998 37.0014C30.5089 37.0014 37.0016 30.5088 37.0016 22.4997C37.0016 14.4906 30.5089 7.99792 22.4998 7.99792C14.4907 7.99792 7.99805 14.4906 7.99805 22.4997C7.99805 30.5088 14.4907 37.0014 22.4998 37.0014Z" fill="url(#paint0_linear)"/>
<path d="M18.1585 28.7051L23.4303 23.4334C23.6784 23.186 23.8181 22.8417 23.8181 22.4997V14.5896C23.8181 13.861 23.2285 13.2713 22.4998 13.2713C21.7711 13.2713 21.1814 13.861 21.1814 14.5896V21.9538L16.2943 26.8409C15.7794 27.3558 15.7794 28.1902 16.2943 28.7051C16.8092 29.2202 17.6434 29.2202 18.1585 28.7051ZM22.4997 0C10.1428 0 0 10.1416 0 22.4997C0 23.2284 0.67754 23.818 1.40623 23.818C2.13492 23.818 2.72457 23.2284 2.72457 22.4997C2.72457 11.5951 11.5951 2.72457 22.4997 2.72457C33.4043 2.72457 42.2748 11.5951 42.2748 22.4997C42.2748 33.4043 33.4043 42.2748 22.4997 42.2748C18.6681 42.2748 15.5046 40.9222 13.3385 39.6381H14.5896C15.3183 39.6381 15.908 39.0485 15.908 38.3198C15.908 37.5911 15.3183 37.0014 14.5896 37.0014H9.31628C8.24333 37.1547 7.84747 37.8741 8.03652 38.6391L9.35486 44.0003C9.53275 44.7152 10.2607 45.137 10.9538 44.9595C11.662 44.7831 12.0894 44.0673 11.9143 43.3617L11.4987 41.6118C13.9672 43.1672 17.7513 44.9994 22.4997 44.9994C34.8566 44.9994 44.9994 34.8578 44.9994 22.4997C44.9994 10.1416 34.8566 0 22.4997 0Z" fill="url(#paint1_linear)"/>
</g>
<defs>
<linearGradient id="paint0_linear" x1="22.4998" y1="37.0014" x2="22.4998" y2="7.99792" gradientUnits="userSpaceOnUse">
<stop stop-color="#4C8A2D"/>
<stop offset="1" stop-color="#7BE25D"/>
</linearGradient>
<linearGradient id="paint1_linear" x1="22.4997" y1="45" x2="22.4997" y2="0" gradientUnits="userSpaceOnUse">
<stop stop-color="#BBFEA7"/>
<stop offset="0.322917" stop-color="#D8FFCD"/>
<stop offset="1" stop-color="#F2FFEE"/>
</linearGradient>
<clipPath id="clip0">
<rect width="45" height="45" fill="white"/>
</clipPath>
</defs>
</svg>
